<?xml version="1.0" standalone="no"?>
<!DOCTYPE svg PUBLIC "-//W3C//DTD SVG 20010904//EN"
 "http://www.w3.org/TR/2001/REC-SVG-20010904/DTD/svg10.dtd">
<svg version="1.0" xmlns="http://www.w3.org/2000/svg"
 width="300.000000pt" height="263.000000pt" viewBox="0 0 300.000000 263.000000"
 preserveAspectRatio="xMidYMid meet">
<metadata>
Created by potrace 1.10, written by Peter Selinger 2001-2011
</metadata>
<g transform="translate(0.000000,263.000000) scale(0.100000,-0.100000)"
fill="#000000" stroke="none">
<path d="M1982 2504 c-146 -32 -264 -97 -377 -209 -96 -94 -151 -184 -197
-315 -33 -94 -33 -96 -36 -312 -2 -132 0 -218 6 -218 14 0 21 77 22 240 0 88
6 170 15 210 78 344 376 589 717 590 204 0 380 -72 523 -215 90 -90 142 -173
182 -290 26 -73 28 -93 28 -225 0 -158 -13 -217 -75 -339 -39 -77 -138 -209
-185 -246 -21 -16 -43 -34 -49 -40 -86 -76 -260 -144 -422 -166 -114 -15 -323
-6 -469 20 -120 22 -264 26 -335 10 -136 -31 -263 -135 -327 -267 -35 -71 -38
-85 -41 -182 -2 -58 1 -123 6 -143 8 -30 8 -37 -4 -37 -20 0 -222 165 -358
293 -178 167 -327 351 -399 493 -63 124 -77 307 -33 437 35 105 72 163 151
243 110 110 233 163 395 169 151 6 270 -33 386 -126 111 -88 182 -204 223
-363 25 -97 34 -109 26 -36 -15 144 -77 273 -180 375 -123 122 -262 179 -435
179 -121 0 -187 -17 -295 -73 -84 -43 -194 -149 -244 -234 -101 -173 -109
-399 -20 -581 94 -191 334 -459 609 -682 89 -72 265 -204 272 -204 2 0 -11 30
-29 68 -46 92 -60 172 -46 263 24 152 119 280 260 347 73 34 85 37 188 40 81
3 143 -2 235 -18 362 -63 661 -18 875 130 107 75 242 242 295 365 59 137 76
319 44 466 -21 96 -90 238 -154 316 -98 121 -231 208 -385 254 -88 26 -271 33
-363 13z"/>
<path d="M2013 2086 c-100 -33 -173 -94 -220 -186 -25 -50 -28 -65 -28 -160 0
-100 2 -108 32 -160 131 -227 418 -255 587 -58 65 75 94 196 73 301 -19 95
-107 199 -206 245 -67 31 -175 39 -238 18z m241 -50 c114 -56 181 -169 179
-302 -1 -87 -24 -144 -84 -209 -62 -67 -127 -97 -219 -103 -107 -6 -176 21
-252 98 -46 47 -60 70 -77 125 -26 84 -26 116 -1 197 31 101 110 181 213 214
66 22 174 13 241 -20z"/>
<path d="M1377 766 c-54 -15 -111 -57 -145 -106 -71 -105 -44 -255 60 -330
144 -105 341 -33 388 140 47 175 -126 344 -303 296z m165 -47 c113 -57 149
-208 74 -316 -37 -54 -89 -84 -156 -91 -87 -8 -162 30 -206 103 -112 191 89
404 288 304z"/>
</g>
</svg>
